<svg id="Capa_1" data-name="Capa 1" xmlns="http://www.w3.org/2000/svg" viewBox="0 0 123.56 36.31"><defs><style>.cls-1{fill:#1d1d1b;}</style></defs><path class="cls-1" d="M48.88,21.06v6.77a.17.17,0,0,1-.17.16h-3.3a.17.17,0,0,1-.17-.16V8.64H57a.31.31,0,0,1,.31.31v2.79a.31.31,0,0,1-.31.31H48.88v6.13l8,0a.12.12,0,0,1,.12.12v2.66a.12.12,0,0,1-.12.12Z"/><path class="cls-1" d="M72.11,12.58H75a.31.31,0,0,1,.31.32V27.47a.31.31,0,0,1-.31.31H71.8V26.19a6.74,6.74,0,0,1-9.88-.25,8.48,8.48,0,0,1-2.05-5.8,8.26,8.26,0,0,1,1.89-5.52,7,7,0,0,1,4.18-2.37,6.39,6.39,0,0,1,5.86,2.1V12.9A.31.31,0,0,1,72.11,12.58Zm-8.65,7.56a5.28,5.28,0,0,0,1.17,3.55,3.82,3.82,0,0,0,3,1.39,4,4,0,0,0,3.15-1.34A5.21,5.21,0,0,0,72,20.21a5.18,5.18,0,0,0-1.2-3.52,4.15,4.15,0,0,0-6.15,0A5.08,5.08,0,0,0,63.46,20.14Z"/><path class="cls-1" d="M82,12.71l3.87,8.41,3.86-8.41a.22.22,0,0,1,.2-.13h3.45a.22.22,0,0,1,.2.32L86.68,27.07a1,1,0,0,1-1.71,0L78.14,12.9a.22.22,0,0,1,.2-.32h3.44A.22.22,0,0,1,82,12.71Z"/><path class="cls-1" d="M109.38,21H98.49a4.64,4.64,0,0,0,1.22,3,3.71,3.71,0,0,0,2.76,1.09,3.64,3.64,0,0,0,2.17-.62,7.84,7.84,0,0,0,1.63-1.87.57.57,0,0,1,.74-.19l2,1.11a.58.58,0,0,1,.2.8,10.16,10.16,0,0,1-1.14,1.5,7.76,7.76,0,0,1-1.64,1.37,6.64,6.64,0,0,1-1.88.79,9.56,9.56,0,0,1-2.2.25A7.17,7.17,0,0,1,96.88,26a8.19,8.19,0,0,1-2.06-5.83,8.45,8.45,0,0,1,2-5.84,7.61,7.61,0,0,1,10.64-.06,8.41,8.41,0,0,1,1.94,5.88Zm-3.6-2.87a3.37,3.37,0,0,0-3.54-2.81,3.45,3.45,0,0,0-1.21.2,3.19,3.19,0,0,0-1,.56,3.71,3.71,0,0,0-.79.88,4.12,4.12,0,0,0-.49,1.17Z"/><path class="cls-1" d="M121.7,15.36l-2.2,1.17a.41.41,0,0,1-.54-.16,1.79,1.79,0,0,0-1.51-1.06,1.2,1.2,0,0,0-.83.32,1.08,1.08,0,0,0-.34.82c0,.59.67,1.16,2,1.74a12.3,12.3,0,0,1,3.76,2.21,3.82,3.82,0,0,1,1,2.73,4.77,4.77,0,0,1-1.62,3.68,5.51,5.51,0,0,1-3.81,1.41,5.46,5.46,0,0,1-5.27-3.42.34.34,0,0,1,.16-.45l2.43-1.13a.34.34,0,0,1,.42.14,5.31,5.31,0,0,0,.8,1.13,2.17,2.17,0,0,0,1.53.59c1.18,0,1.78-.54,1.78-1.62,0-.63-.46-1.21-1.38-1.75-.35-.17-.7-.35-1.06-.51l-1.07-.52a6.67,6.67,0,0,1-2.16-1.5,3.68,3.68,0,0,1-.79-2.45,4.33,4.33,0,0,1,1.35-3.27,4.75,4.75,0,0,1,3.37-1.3,4.51,4.51,0,0,1,4.16,2.65A.42.42,0,0,1,121.7,15.36Z"/><path class="cls-1" d="M37.39,15.24a1.54,1.54,0,0,0-.9-2.6l-9.75-1.22a15.75,15.75,0,0,1-5,9A21.88,21.88,0,0,1,9.87,25.94c-.34,0-.7.06-1,.09L7.53,34.54a1.53,1.53,0,0,0,2.25,1.58l9-5a1.55,1.55,0,0,1,1.42,0l9.23,4.63a1.53,1.53,0,0,0,2.19-1.66L29.72,24a1.54,1.54,0,0,1,.42-1.37Z"/><path class="cls-1" d="M21,19.42a12.8,12.8,0,0,0,4.24-4.23,11.25,11.25,0,0,0,1.43-3.78l-.43-.05a1.55,1.55,0,0,1-1.17-.82L20.34,1.37a1.54,1.54,0,0,0-2.75.06L13.2,10.77a1.56,1.56,0,0,1-1.14.86L1.88,13.3a1.54,1.54,0,0,0-.8,2.63l4.47,4.2a18,18,0,0,0,4.32,1.33A16.1,16.1,0,0,0,21,19.42Z"/></svg>